# xmcd
#
# Track frame offsets: 
#        150
#        14160
#        28742
#        45490
#        62265
#        84127
#        103385
#        117952
#        134692
#        157482
#
# Disc length: 2324 seconds
#
# Revision: 3
# Processed by: cddbd v1.5.1PL0 Copyright (c) Steve Scherf et al.
# Submitted via: ExactAudioCopy v0.95a5
#
DISCID=8909120a
DTITLE=Trisha Yearwood - Everybody Knows
DYEAR=1996
DGENRE=Country
TTITLE0=I Want To Live Again
TTITLE1=It's Alright
TTITLE2=Believe Me Baby (I Lied)
TTITLE3=I Need You
TTITLE4=Little Hercules
TTITLE5=Under The Rainbow
TTITLE6=Everybody Knows
TTITLE7=Hello, I'm Gone
TTITLE8=Maybe It's Love
TTITLE9=A Lover Is Forever
EXTD=UPDATE:  Changed Label and Date fields.
EXTT0=
EXTT1=
EXTT2=
EXTT3=
EXTT4=
EXTT5=
EXTT6=
EXTT7=
EXTT8=
EXTT9=
PLAYORDER=
